<?xml version="1.0" ?><svg viewBox="0 0 512 512" xmlns="http://www.w3.org/2000/svg"><defs><style>.cls-1{fill:#dfdfdf;}.cls-2{fill:#bebebe;}.cls-3{fill:#31c292;}.cls-4{fill:#338dbf;}.cls-5{fill:#0071af;}.cls-6{fill:#00a16c;}.cls-7{fill:#5ca4cc;}.cls-8{fill:#00b378;}.cls-9{fill:#7db6d6;}.cls-10{fill:#a2a2a2;}.cls-11{fill:#2c78a3;}.cls-12{fill:#4e8cae;}.cls-13{fill:#006095;}.cls-14{fill:#6b9bb6;}</style></defs><title/><g data-name="/ FLAT" id="_FLAT"><path class="cls-1" d="M440,184H72a16.00008,16.00008,0,0,0-16,16V472H456V200A16.00008,16.00008,0,0,0,440,184Z"/><path class="cls-2" d="M281.5791,472H456V319.86646A304.92364,304.92364,0,0,1,281.5791,472Z"/><polygon class="cls-3" points="160 256 128 256 128 312 384 312 384 256 160 256"/><path class="cls-4" d="M184,24a23.99994,23.99994,0,0,0-24,24V280H352V48a23.99994,23.99994,0,0,1,24-24Z"/><path class="cls-5" d="M400,128V48a24,24,0,0,0-24-24h0a24,24,0,0,0-24,24V152h72A23.99994,23.99994,0,0,1,400,128Z"/><path class="cls-6" d="M468,48h0a20,20,0,0,1,20,20v44a0,0,0,0,1,0,0H448a0,0,0,0,1,0,0V68A20,20,0,0,1,468,48Z"/><path class="cls-2" d="M472,488H40a16,16,0,0,1-16-16V440H201.37258a16,16,0,0,1,11.31371,4.68629l6.62742,6.62742A16,16,0,0,0,230.62742,456h50.74516a16,16,0,0,0,11.31371-4.68629l6.62742-6.62742A16,16,0,0,1,310.62741,440H488v32A16,16,0,0,1,472,488Z"/><path class="cls-7" d="M400,48v80a24,24,0,0,0,48,0V68a20.00006,20.00006,0,0,1,20-20Z"/><path class="cls-5" d="M468,48a20.00006,20.00006,0,0,0-20,20v44h40V68A20.00006,20.00006,0,0,0,468,48Z"/><path class="cls-8" d="M261.65723,418.34326a7.99945,7.99945,0,0,0-11.31348,0L239.0293,407.02979a23.99949,23.99949,0,0,1,33.94043-.001Z"/><path class="cls-8" d="M284.28418,395.71582a39.99956,39.99956,0,0,0-56.56836,0l-11.31445-11.31348a56.0008,56.0008,0,0,1,79.19726,0Z"/><path class="cls-8" d="M306.91113,373.08838a71.99849,71.99849,0,0,0-101.82226,0L193.77441,361.7749a87.99975,87.99975,0,0,1,124.45118,0Z"/><path class="cls-9" d="M184,96V208H328V96Zm128,32H288V112h24Zm-24,16h24v16H288Zm-16,16H200V144h72Zm0-48v16H200V112Zm-72,64h72v16H200Zm88,16V176h24v16Z"/><rect class="cls-9" height="16" width="80" x="184" y="232"/><rect class="cls-9" height="16" width="96" x="208" y="56"/><path class="cls-10" d="M184.00024,488H472a16.00008,16.00008,0,0,0,16-16V440H348.0166A302.57444,302.57444,0,0,1,184.00024,488Z"/><path class="cls-11" d="M160.00024,280H352V88.00024C352,194.03882,266.03882,280,160.00024,280Z"/><path class="cls-12" d="M400,80v48a23.9996,23.9996,0,0,0,40.96094,16.97961A72.00276,72.00276,0,0,1,400,80Z"/><path class="cls-13" d="M448,72v40h40A40.0001,40.0001,0,0,1,448,72Z"/><path class="cls-13" d="M352,80v72h72A71.99989,71.99989,0,0,1,352,80Z"/><path class="cls-14" d="M309.87207,208H328V180.99756A192.32851,192.32851,0,0,1,309.87207,208Z"/><rect class="cls-14" height="16" width="32" x="296" y="232"/></g></svg>